<?xml version="1.0" encoding="UTF-8" standalone="no"?><!DOCTYPE svg PUBLIC "-//W3C//DTD SVG 1.1//EN" "http://www.w3.org/Graphics/SVG/1.1/DTD/svg11.dtd"><svg width="100%" height="100%" viewBox="0 0 32 32" version="1.1" xmlns="http://www.w3.org/2000/svg" xmlns:xlink="http://www.w3.org/1999/xlink" xml:space="preserve" xmlns:serif="http://www.serif.com/" style="fill-rule:evenodd;clip-rule:evenodd;stroke-linejoin:round;stroke-miterlimit:2;"><path d="M15.996,-0l0.004,-0c8.777,-0 16,7.223 16,16c-0,8.777 -7.223,16 -16,16c-8.777,-0 -16,-7.223 -16,-16l-0,-0.004c-0,-8.775 7.221,-15.996 15.996,-15.996Zm-1.861,9.267l4.871,4.671l-11.78,0c-0.002,0 -0.003,0 -0.005,0c-0.847,0 -1.544,0.697 -1.544,1.545l-0,1.033c-0,0.001 -0,0.002 -0,0.003c-0,0.847 0.697,1.545 1.544,1.545c0.002,-0 0.003,-0 0.005,-0l11.78,-0l-4.871,4.671c-0.305,0.292 -0.478,0.696 -0.478,1.119c-0,0.41 0.163,0.803 0.452,1.094l0.709,0.703c0.29,0.291 0.684,0.454 1.094,0.454c0.41,0 0.804,-0.163 1.094,-0.454l8.56,-8.555c0.291,-0.289 0.455,-0.683 0.455,-1.093c0,-0.411 -0.164,-0.805 -0.455,-1.094l-8.558,-8.568c-0.289,-0.291 -0.683,-0.455 -1.093,-0.455c-0.411,0 -0.805,0.164 -1.094,0.455l-0.709,0.703c-0.289,0.292 -0.451,0.686 -0.451,1.097c-0,0.423 0.172,0.829 0.476,1.122l-0.002,0.004Z" style="fill:#2b73c2;fill-rule:nonzero;"/></svg>