<?xml version="1.0" encoding="UTF-8" standalone="no"?><!DOCTYPE svg PUBLIC "-//W3C//DTD SVG 1.1//EN" "http://www.w3.org/Graphics/SVG/1.1/DTD/svg11.dtd"><svg width="100%" height="100%" viewBox="0 0 32 42" version="1.1" xmlns="http://www.w3.org/2000/svg" xmlns:xlink="http://www.w3.org/1999/xlink" xml:space="preserve" xmlns:serif="http://www.serif.com/" style="fill-rule:evenodd;clip-rule:evenodd;stroke-linejoin:round;stroke-miterlimit:2;"><path d="M16.001,0c5.156,-0 9.399,4.307 9.399,9.541l0,5.751c1.104,0.018 2.188,0.299 3.165,0.821c1.097,0.592 1.995,1.504 2.578,2.617c0.652,1.328 0.941,2.81 0.836,4.289l-0,11.205c0.105,1.48 -0.184,2.962 -0.836,4.289c-0.583,1.114 -1.481,2.025 -2.578,2.617c-1.308,0.662 -2.768,0.955 -4.226,0.848l-16.678,0c-1.458,0.107 -2.918,-0.186 -4.226,-0.848c-1.097,-0.592 -1.995,-1.503 -2.578,-2.617c-0.652,-1.327 -0.941,-2.809 -0.836,-4.289l0,-11.205c-0.105,-1.479 0.184,-2.961 0.836,-4.289c0.583,-1.114 1.481,-2.025 2.578,-2.617c0.977,-0.522 2.062,-0.803 3.166,-0.821l-0,-5.751c-0,-5.234 4.243,-9.541 9.4,-9.541Zm8.339,18.127l-16.679,0c-0.994,-0.103 -1.998,0.073 -2.9,0.509c-0.606,0.326 -1.101,0.828 -1.421,1.443c-0.43,0.916 -0.604,1.934 -0.502,2.944l-0,11.201c-0.102,1.009 0.072,2.028 0.502,2.944c0.32,0.614 0.815,1.117 1.421,1.442c0.902,0.437 1.906,0.613 2.9,0.51l16.679,-0c0.994,0.103 1.998,-0.073 2.9,-0.51c0.606,-0.325 1.101,-0.828 1.422,-1.442c0.429,-0.916 0.603,-1.935 0.501,-2.944l0,-11.205c0.102,-1.009 -0.072,-2.027 -0.501,-2.943c-0.321,-0.615 -0.816,-1.118 -1.422,-1.443c-0.902,-0.435 -1.906,-0.61 -2.9,-0.506Zm-8.339,5.724c0,0 0.001,0 0.001,0c1.547,0 2.82,1.292 2.82,2.863c-0,1.21 -0.756,2.295 -1.88,2.698l-0,3.026c-0,0.523 -0.425,0.954 -0.94,0.954c-0.516,-0 -0.94,-0.431 -0.94,-0.954l-0,-3.025c-1.124,-0.403 -1.881,-1.488 -1.881,-2.698c0,-1.57 1.273,-2.863 2.82,-2.863c0,0 0,0 0.001,0l-0.001,-0.001Zm-0,-20.989c-3.61,0 -6.58,3.015 -6.58,6.679l-0,5.724l13.159,-0l0,-5.724c0,-3.664 -2.97,-6.679 -6.579,-6.679Z" style="fill:#fff;fill-rule:nonzero;"/></svg>