<?xml version="1.0" encoding="UTF-8" standalone="no"?><!DOCTYPE svg PUBLIC "-//W3C//DTD SVG 1.1//EN" "http://www.w3.org/Graphics/SVG/1.1/DTD/svg11.dtd"><svg width="100%" height="100%" viewBox="0 0 267 53" version="1.1" xmlns="http://www.w3.org/2000/svg" xmlns:xlink="http://www.w3.org/1999/xlink" xml:space="preserve" xmlns:serif="http://www.serif.com/" style="fill-rule:evenodd;clip-rule:evenodd;stroke-linejoin:round;stroke-miterlimit:2;"><path d="M88.151,38.274l0,8.15c0,2.747 -2.172,4.035 -4.434,4.035c-1.642,0.151 -3.232,-0.656 -4.08,-2.07l1.6,-0.921c0.475,0.925 1.487,1.453 2.517,1.312c0.101,0.014 0.204,0.021 0.306,0.021c1.242,-0 2.264,-1.022 2.264,-2.264c-0,-0.038 -0.001,-0.075 -0.003,-0.113l0,-1.043c-0.685,0.969 -1.814,1.53 -3,1.492c-2.394,-0.036 -4.344,-2.015 -4.344,-4.41c0,-2.394 1.95,-4.373 4.344,-4.409c1.184,-0.041 2.313,0.517 3,1.483l0,-1.263l1.83,0Zm41.44,7.075c0.87,0.039 1.704,-0.359 2.221,-1.059l1.538,0.888c-0.85,1.303 -2.304,2.091 -3.859,2.091c-2.527,-0 -4.607,-2.08 -4.607,-4.607c-0,-2.506 2.044,-4.576 4.55,-4.607c0.003,-0 0.006,-0 0.009,-0c2.373,-0 4.326,1.953 4.326,4.326c-0,0.06 -0.002,0.12 -0.004,0.18c-0.005,0.259 -0.027,0.518 -0.066,0.774l-6.869,0c0.287,1.262 1.475,2.127 2.764,2.013l-0.003,0.001Zm31.106,0c0.87,0.039 1.704,-0.359 2.221,-1.059l1.538,0.888c-0.85,1.303 -2.304,2.091 -3.859,2.091c-2.527,-0 -4.607,-2.08 -4.607,-4.607c-0,-2.506 2.044,-4.576 4.55,-4.607c0.002,-0 0.003,-0 0.005,-0c2.373,-0 4.326,1.953 4.326,4.326c-0,0.06 -0.001,0.121 -0.004,0.181c-0.005,0.259 -0.026,0.518 -0.065,0.774l-6.869,0c0.287,1.262 1.475,2.127 2.764,2.013Zm-52.126,-0.938c-0,1.7 -1.506,2.624 -3.365,2.624c-1.468,0.118 -2.866,-0.678 -3.513,-2l1.6,-0.921c0.296,0.786 1.079,1.289 1.917,1.23c0.823,0 1.465,-0.277 1.465,-0.954c-0,-1.524 -4.632,-0.668 -4.632,-3.725c-0,-1.606 1.39,-2.616 3.151,-2.616c1.312,-0.056 2.549,0.632 3.192,1.777l-1.571,0.872c-0.289,-0.625 -0.934,-1.011 -1.621,-0.97c-0.675,0 -1.259,0.285 -1.259,0.9c-0,1.549 4.64,0.611 4.64,3.774l-0.004,0.009Zm-31.97,-6.137l-0,8.542l-1.868,0l-0,-1.231c-0.697,0.96 -1.834,1.507 -3.019,1.451c-2.357,-0.149 -4.216,-2.13 -4.216,-4.491c0,-2.361 1.859,-4.342 4.216,-4.491c1.181,-0.05 2.313,0.489 3.019,1.438l-0,-1.215l1.868,-0.003Zm33.591,4.271c-0,-0.022 -0,-0.043 -0,-0.065c-0,-2.429 1.998,-4.428 4.428,-4.428c0.04,0 0.081,0.001 0.122,0.002c1.59,-0.039 3.077,0.81 3.85,2.2l-1.6,0.929c-0.43,-0.844 -1.316,-1.361 -2.262,-1.32c-1.471,0 -2.681,1.21 -2.681,2.681c0,1.471 1.21,2.681 2.681,2.681c0.95,0.027 1.84,-0.48 2.3,-1.312l1.6,0.9c-0.786,1.395 -2.281,2.249 -3.883,2.217c-0.037,0.001 -0.075,0.001 -0.112,0.001c-2.435,0 -4.438,-2.003 -4.438,-4.438c-0,-0.018 -0,-0.036 0,-0.054l-0.005,0.006Zm35.951,0c-0,-0.022 -0,-0.043 -0,-0.065c-0,-2.429 1.998,-4.428 4.428,-4.428c0.04,0 0.081,0.001 0.122,0.002c1.591,-0.042 3.078,0.808 3.85,2.2l-1.6,0.929c-0.428,-0.845 -1.316,-1.363 -2.263,-1.32c-1.471,0 -2.681,1.21 -2.681,2.681c0,1.471 1.21,2.681 2.681,2.681c0.951,0.029 1.841,-0.479 2.3,-1.312l1.6,0.9c-0.785,1.397 -2.281,2.251 -3.883,2.217c-0.037,0.001 -0.075,0.001 -0.112,0.001c-2.435,0 -4.438,-2.003 -4.438,-4.438c-0,-0.018 -0,-0.036 0,-0.054l-0.004,0.006Zm-2.205,-0.969l-0,5.24l-1.867,0l-0,-5.053c0.008,-0.067 0.011,-0.134 0.011,-0.201c0,-0.98 -0.806,-1.786 -1.786,-1.786c-0.05,-0 -0.1,0.002 -0.15,0.006c-1.226,0 -2.2,0.717 -2.2,2.462l-0,4.572l-1.859,0l-0,-8.541l1.859,0l-0,1.092c0.592,-0.882 1.614,-1.383 2.674,-1.312c0.044,-0.002 0.088,-0.003 0.132,-0.003c1.756,0 3.2,1.445 3.2,3.2c0,0.108 -0.005,0.216 -0.016,0.324l0.002,0Zm-46.334,-3.302l1.859,-0l-0,8.542l-1.859,-0l-0,-8.542Zm23.052,-0l1.868,-0l-0,8.542l-1.868,-0l-0,-8.542Zm-25.282,-0.165c0.052,0.001 0.105,0.003 0.158,0.006l-0,2.009c-0.132,-0.024 -0.265,-0.035 -0.399,-0.035c-1.242,-0 -2.265,1.022 -2.265,2.265c0,0.052 0.002,0.105 0.006,0.158l-0,4.3l-1.859,-0l-0,-8.542l1.859,-0l-0,1.434c0.445,-0.975 1.424,-1.597 2.487,-1.595l0.013,0Zm-20.641,4.436c-0.008,-1.488 -1.235,-2.708 -2.723,-2.708c-1.494,0 -2.723,1.229 -2.723,2.723c0,1.494 1.229,2.723 2.723,2.723c0.026,0.001 0.052,0.001 0.079,0.001c1.451,0 2.646,-1.194 2.646,-2.646c-0,-0.031 -0.001,-0.062 -0.002,-0.093Zm11.592,-0.082c0,-0.021 0.001,-0.042 0.001,-0.063c-0,-1.505 -1.239,-2.744 -2.744,-2.744c-1.506,0 -2.744,1.239 -2.744,2.744c-0,1.505 1.238,2.744 2.744,2.744l0.099,0.002c1.451,-0 2.644,-1.194 2.644,-2.644c0,-0.013 0,-0.026 -0,-0.039Zm76.672,-0.635c-0.154,-1.227 -1.232,-2.145 -2.468,-2.1c-1.271,-0.067 -2.402,0.844 -2.608,2.1l5.076,0Zm-31.103,-0.001c-0.154,-1.227 -1.232,-2.145 -2.468,-2.1c-1.271,-0.067 -2.402,0.844 -2.608,2.1l5.076,0Zm-11.501,-6.014c-0,-0.004 -0,-0.007 -0,-0.011c-0,-0.654 0.538,-1.193 1.193,-1.193c0.654,0 1.193,0.539 1.193,1.193c-0,0.654 -0.539,1.193 -1.193,1.193c-0.649,-0.004 -1.183,-0.533 -1.193,-1.182Zm-23.052,0c-0,-0.002 -0,-0.005 -0,-0.007c-0,-0.652 0.537,-1.189 1.189,-1.189c0.652,0 1.189,0.537 1.189,1.189c-0,0.651 -0.534,1.187 -1.185,1.189c-0.649,-0.004 -1.183,-0.533 -1.193,-1.182Zm-3.348,-18.559c-0.025,-1.823 0.333,-3.631 1.053,-5.306c0.662,-1.53 1.641,-2.902 2.871,-4.026c1.267,-1.127 2.743,-1.993 4.344,-2.55c3.527,-1.206 7.357,-1.206 10.884,0c1.605,0.559 3.086,1.425 4.36,2.551c1.238,1.121 2.223,2.494 2.888,4.026c0.72,1.675 1.078,3.483 1.053,5.306c0.022,1.838 -0.336,3.662 -1.053,5.355c-0.661,1.565 -1.645,2.973 -2.888,4.132c-1.265,1.159 -2.747,2.056 -4.36,2.64c-3.52,1.249 -7.364,1.249 -10.884,0c-1.609,-0.582 -3.086,-1.48 -4.344,-2.64c-1.235,-1.162 -2.213,-2.569 -2.871,-4.132c-0.717,-1.693 -1.075,-3.517 -1.053,-5.355l-0,-0.001Zm-27.569,0.139c-0.027,-1.827 0.329,-3.64 1.045,-5.322c0.664,-1.538 1.636,-2.925 2.855,-4.075c1.237,-1.147 2.692,-2.034 4.278,-2.608c1.681,-0.617 3.459,-0.927 5.249,-0.913c1.841,-0.011 3.67,0.298 5.405,0.913c1.566,0.537 3.011,1.376 4.253,2.47l-5.092,6.08c-0.46,-0.591 -1.059,-1.059 -1.744,-1.361c-0.736,-0.323 -1.532,-0.484 -2.336,-0.472c-0.668,-0.006 -1.33,0.119 -1.95,0.367c-0.596,0.237 -1.136,0.595 -1.587,1.051c-0.465,0.483 -0.829,1.054 -1.07,1.679c-0.262,0.701 -0.39,1.445 -0.378,2.193c-0.011,0.739 0.125,1.474 0.4,2.16c0.255,0.61 0.623,1.166 1.086,1.638c0.449,0.461 0.99,0.822 1.588,1.059c0.611,0.239 1.261,0.361 1.917,0.358c0.857,0.024 1.706,-0.178 2.46,-0.586c0.632,-0.343 1.184,-0.815 1.621,-1.386l5.092,6.048c-1.18,1.149 -2.579,2.05 -4.113,2.649c-3.479,1.287 -7.303,1.305 -10.794,0.049c-3.201,-1.162 -5.784,-3.597 -7.133,-6.724c-0.715,-1.662 -1.071,-3.456 -1.045,-5.265l-0.007,-0.002Zm103.034,12.234l-8.3,0l-0,-17.524l-6.072,-0l-0,-6.944l20.441,-0l0,6.944l-6.072,-0l0.003,17.524Zm73.484,-24.468l8.827,-0l9.626,24.467l-9.033,-0l-1.292,-3.592l-7.84,-0l-1.226,3.592l-8.786,-0l9.724,-24.467Zm-36.88,-0l9.387,-0l4.08,15.135l0.14,-0l3.908,-15.135l9.379,-0l-8.926,24.467l-9.214,-0l-8.754,-24.467Zm-78.306,-0l10.638,-0c1.213,0.001 2.423,0.124 3.612,0.367c1.138,0.221 2.224,0.655 3.2,1.28c0.953,0.616 1.739,1.459 2.287,2.453c0.621,1.184 0.921,2.511 0.872,3.847c0.083,2.878 -1.642,5.519 -4.311,6.6l6.269,9.919l-9.535,0l-4.731,-8.746l-0.247,0l-0,8.746l-8.054,0l0,-24.466Zm55.227,-0l16.98,-0l0,6.846l-9.173,-0l0,2.1l8.614,-0l0,6.39l-8.614,0l0,2.282l9.765,-0l0,6.846l-17.572,-0l0,-24.464Zm-80.163,12.096c-0.008,0.752 0.115,1.499 0.362,2.209c0.226,0.634 0.569,1.221 1.012,1.728c0.428,0.486 0.959,0.871 1.555,1.125c0.617,0.271 1.284,0.407 1.958,0.4c0.666,0.007 1.325,-0.129 1.933,-0.4c0.59,-0.261 1.117,-0.644 1.547,-1.125c0.456,-0.5 0.806,-1.088 1.028,-1.728c0.254,-0.708 0.379,-1.457 0.37,-2.209c0.008,-0.736 -0.117,-1.468 -0.37,-2.16c-0.219,-0.62 -0.569,-1.184 -1.028,-1.655c-0.439,-0.453 -0.965,-0.813 -1.547,-1.059c-0.612,-0.255 -1.27,-0.382 -1.933,-0.375c-0.671,-0.007 -1.337,0.12 -1.958,0.375c-0.587,0.239 -1.117,0.6 -1.555,1.059c-0.445,0.478 -0.789,1.041 -1.012,1.655c-0.246,0.693 -0.368,1.424 -0.362,2.16Zm144.417,-3.563l-2.024,6.048l4.015,0l-1.991,-6.048Zm-111.501,1.802l1.629,0c0.309,-0.002 0.617,-0.026 0.922,-0.073c0.325,-0.039 0.641,-0.139 0.93,-0.293c0.289,-0.143 0.537,-0.356 0.724,-0.619c0.215,-0.307 0.32,-0.678 0.3,-1.052c0.021,-0.363 -0.062,-0.725 -0.238,-1.043c-0.154,-0.24 -0.37,-0.434 -0.625,-0.562c-0.259,-0.132 -0.541,-0.215 -0.831,-0.244c-0.276,-0.036 -0.553,-0.056 -0.831,-0.059l-1.974,-0l-0.006,3.945Zm129.912,-6.667l0.024,-2.592l-0.017,-0l-0.963,2.592l-0.625,-0l-0.94,-2.593l-0.008,-0l0.017,2.592l-0.839,-0l-0,-3.666l1.267,-0l0.848,2.347l0.017,-0l0.806,-2.347l1.292,-0l0,3.668l-0.879,-0.001Zm-5.217,-2.91l0,2.91l-0.9,-0l0,-2.91l-1.044,-0l0,-0.758l2.986,-0l0,0.758l-1.042,-0Z" style="fill:#211e1e;fill-rule:nonzero;"/><path d="M52.611,26.041c-0,-0.114 -0.008,-0.22 -0.008,-0.334l-21.201,0l-4.8,-4.76l25.5,-0c-0.463,-2.312 -1.241,-4.55 -2.312,-6.651l-22.666,-0l4.8,-4.76l14.738,-0c-2.236,-2.71 -4.995,-4.942 -8.111,-6.565c-0.058,-0.033 -0.115,-0.057 -0.173,-0.09c-2.152,-1.11 -4.447,-1.917 -6.82,-2.4l-31.073,30.784c0.25,1.224 0.591,2.427 1.02,3.6c0.414,1.146 0.909,2.261 1.481,3.336c4.288,8.013 12.431,13.262 21.5,13.856l-17.749,-17.573l3.636,-3.6l20.946,20.757c2.453,-0.471 4.827,-1.289 7.05,-2.429l-23.248,-23.033l3.628,-3.594l24.013,23.791c1.752,-1.393 3.32,-3.004 4.665,-4.793l-9.313,-9.227l13.715,-0c0.521,-2.065 0.783,-4.186 0.782,-6.315Zm0,-0.002l0,0.002l0,-0.002Zm-52.611,-1.449c0.799,-13.257 11.557,-23.915 24.821,-24.59l-24.821,24.59Z" style="fill:#2b73c2;fill-rule:nonzero;"/></svg>