<?xml version="1.0" encoding="UTF-8" standalone="no"?><!DOCTYPE svg PUBLIC "-//W3C//DTD SVG 1.1//EN" "http://www.w3.org/Graphics/SVG/1.1/DTD/svg11.dtd"><svg width="100%" height="100%" viewBox="0 0 120 120" version="1.1" xmlns="http://www.w3.org/2000/svg" xmlns:xlink="http://www.w3.org/1999/xlink" xml:space="preserve" xmlns:serif="http://www.serif.com/" style="fill-rule:evenodd;clip-rule:evenodd;stroke-linejoin:round;stroke-miterlimit:2;"><path d="M83.797,117.7l-0.843,-2.208l-7.177,-0l-0.843,2.257c-0.205,0.627 -0.488,1.226 -0.843,1.783c-0.283,0.33 -0.71,0.503 -1.144,0.462c-0.447,0.001 -0.876,-0.176 -1.192,-0.491c-0.323,-0.282 -0.512,-0.689 -0.517,-1.117c0.002,-0.253 0.042,-0.504 0.12,-0.744c0.08,-0.256 0.212,-0.612 0.397,-1.068l4.517,-11.427c0.128,-0.329 0.282,-0.723 0.464,-1.183c0.15,-0.402 0.344,-0.786 0.578,-1.147c0.207,-0.306 0.484,-0.559 0.809,-0.738c0.379,-0.199 0.805,-0.296 1.234,-0.282c0.433,-0.015 0.862,0.082 1.246,0.282c0.322,0.177 0.599,0.426 0.809,0.726c0.206,0.299 0.38,0.619 0.517,0.954c0.141,0.341 0.32,0.795 0.536,1.363l4.613,11.355c0.288,0.592 0.471,1.23 0.542,1.884c-0.009,0.428 -0.194,0.834 -0.512,1.122c-0.323,0.333 -0.77,0.517 -1.234,0.51c-0.25,0.007 -0.497,-0.045 -0.723,-0.15c-0.197,-0.097 -0.369,-0.237 -0.505,-0.409c-0.178,-0.245 -0.326,-0.511 -0.44,-0.792c-0.156,-0.356 -0.291,-0.67 -0.404,-0.942l-0.005,0Zm19.861,-3.289c0.013,1.016 -0.274,2.014 -0.826,2.868c-0.593,0.885 -1.432,1.577 -2.415,1.993c-1.19,0.506 -2.476,0.752 -3.769,0.72c-1.5,0.058 -2.987,-0.282 -4.312,-0.984c-0.795,-0.464 -1.466,-1.113 -1.957,-1.89c-0.467,-0.679 -0.728,-1.477 -0.752,-2.299c0,-0.006 0,-0.011 0,-0.016c0,-0.854 0.706,-1.557 1.563,-1.557c0.013,-0 0.025,-0 0.038,-0c0.354,-0.009 0.698,0.121 0.958,0.361c0.3,0.301 0.528,0.666 0.668,1.068c0.19,0.493 0.434,0.964 0.729,1.403c0.284,0.396 0.663,0.716 1.101,0.93c0.585,0.268 1.225,0.393 1.868,0.367c0.918,0.041 1.826,-0.218 2.583,-0.739c0.619,-0.41 0.992,-1.102 0.994,-1.842c0.022,-0.527 -0.172,-1.041 -0.536,-1.423c-0.389,-0.383 -0.864,-0.669 -1.386,-0.834c-0.566,-0.192 -1.322,-0.396 -2.269,-0.612c-1.094,-0.239 -2.162,-0.587 -3.186,-1.039c-0.807,-0.357 -1.507,-0.915 -2.035,-1.62c-0.521,-0.746 -0.785,-1.641 -0.752,-2.55c-0.015,-0.922 0.264,-1.825 0.794,-2.581c0.58,-0.79 1.38,-1.393 2.301,-1.734c1.13,-0.425 2.331,-0.631 3.538,-0.604c0.953,-0.019 1.903,0.117 2.812,0.403c0.719,0.228 1.387,0.591 1.969,1.068c0.473,0.383 0.863,0.859 1.145,1.398c0.229,0.442 0.352,0.931 0.361,1.428c-0.001,0.425 -0.162,0.835 -0.452,1.146c-0.279,0.33 -0.693,0.518 -1.126,0.51c-0.339,0.025 -0.674,-0.084 -0.933,-0.302c-0.28,-0.298 -0.513,-0.636 -0.693,-1.003c-0.269,-0.595 -0.663,-1.125 -1.156,-1.554c-0.638,-0.426 -1.403,-0.623 -2.169,-0.558c-0.789,-0.038 -1.571,0.173 -2.234,0.604c-0.512,0.311 -0.833,0.861 -0.849,1.459c-0.007,0.327 0.094,0.648 0.289,0.912c0.215,0.274 0.486,0.499 0.795,0.66c0.325,0.179 0.668,0.324 1.024,0.432c0.345,0.104 0.915,0.256 1.71,0.456c0.914,0.209 1.816,0.466 2.703,0.769c0.731,0.242 1.425,0.586 2.059,1.021c0.561,0.389 1.019,0.91 1.333,1.515c0.337,0.701 0.5,1.473 0.476,2.251l-0.004,-0.001Zm-101.599,-12.324c0.067,0 0.134,0.003 0.201,0.009l4.59,-0c1.053,-0.033 2.107,0.072 3.133,0.312c0.693,0.184 1.334,0.525 1.872,0.997c0.529,0.467 0.939,1.05 1.199,1.704c0.281,0.723 0.418,1.493 0.405,2.268c0.105,1.54 -0.509,3.046 -1.662,4.076c-1.437,1.025 -3.191,1.515 -4.953,1.386l-3.267,-0l-0,4.981c0.042,0.584 -0.139,1.164 -0.506,1.621c-0.323,0.362 -0.791,0.564 -1.277,0.552c-0.493,0.019 -0.97,-0.181 -1.301,-0.546c-0.359,-0.454 -0.535,-1.026 -0.493,-1.603l0,-13.564c-0.06,-0.61 0.136,-1.219 0.542,-1.68c0.432,-0.333 0.961,-0.512 1.502,-0.513l0.015,-0Zm116.099,2.95l-3.902,-0l-0,12.783c0.047,0.588 -0.129,1.173 -0.494,1.638c-0.326,0.355 -0.793,0.55 -1.276,0.534c-0.49,0.017 -0.963,-0.18 -1.295,-0.54c-0.367,-0.462 -0.545,-1.045 -0.5,-1.632l0,-12.783l-3.901,-0c-0.488,0.038 -0.973,-0.105 -1.361,-0.403c-0.299,-0.271 -0.462,-0.661 -0.446,-1.063c-0.019,-0.412 0.152,-0.81 0.464,-1.08c0.385,-0.288 0.862,-0.429 1.343,-0.396l11.369,-0c0.493,-0.04 0.985,0.103 1.378,0.403c0.301,0.272 0.466,0.663 0.451,1.068c0.016,0.405 -0.153,0.795 -0.458,1.063c-0.392,0.296 -0.881,0.44 -1.372,0.403l-0,0.005Zm-93.937,-3.241c1.641,-0.046 3.266,0.336 4.713,1.108c1.295,0.722 2.337,1.825 2.981,3.158c0.705,1.503 1.051,3.149 1.011,4.807c0.015,1.258 -0.172,2.51 -0.554,3.709c-0.345,1.069 -0.911,2.055 -1.662,2.892c-0.751,0.825 -1.682,1.466 -2.722,1.873c-2.392,0.871 -5.019,0.864 -7.407,-0.018c-1.041,-0.411 -1.975,-1.053 -2.729,-1.879c-0.753,-0.846 -1.317,-1.842 -1.656,-2.921c-0.382,-1.191 -0.571,-2.435 -0.56,-3.685c-0.014,-1.264 0.184,-2.521 0.584,-3.721c0.355,-1.068 0.931,-2.049 1.693,-2.88c0.751,-0.799 1.673,-1.418 2.698,-1.814c1.152,-0.436 2.377,-0.649 3.61,-0.629l-0.002,-0l0.004,-0l-0.002,-0Zm45.065,12.34c-0.016,0.626 -0.157,1.242 -0.416,1.813c-0.317,0.713 -0.759,1.364 -1.306,1.921c-0.644,0.662 -1.419,1.183 -2.275,1.531c-1.025,0.411 -2.123,0.611 -3.228,0.588c-0.854,0.008 -1.707,-0.08 -2.541,-0.264c-0.732,-0.163 -1.433,-0.44 -2.078,-0.822c-0.649,-0.394 -1.229,-0.89 -1.718,-1.47c-0.474,-0.565 -0.875,-1.189 -1.192,-1.855c-0.334,-0.698 -0.583,-1.433 -0.741,-2.19c-0.168,-0.813 -0.251,-1.642 -0.247,-2.472c-0.02,-1.295 0.19,-2.584 0.621,-3.806c0.383,-1.071 0.989,-2.051 1.776,-2.874c0.764,-0.79 1.688,-1.408 2.71,-1.814c1.053,-0.419 2.178,-0.631 3.312,-0.624c1.323,-0.024 2.632,0.268 3.818,0.852c1.014,0.484 1.894,1.207 2.564,2.107c0.538,0.678 0.849,1.507 0.892,2.37c0.002,0.403 -0.154,0.791 -0.434,1.08c-0.263,0.302 -0.647,0.473 -1.048,0.469c-0.372,0.028 -0.741,-0.088 -1.029,-0.324c-0.31,-0.332 -0.567,-0.708 -0.764,-1.117c-0.382,-0.774 -0.946,-1.445 -1.644,-1.956c-0.692,-0.45 -1.506,-0.676 -2.331,-0.648c-1.372,-0.046 -2.683,0.577 -3.511,1.668c-0.953,1.391 -1.413,3.06 -1.307,4.742c-0.036,1.165 0.161,2.325 0.579,3.414c0.322,0.83 0.894,1.542 1.637,2.035c0.744,0.459 1.606,0.692 2.481,0.672c0.928,0.03 1.842,-0.237 2.607,-0.763c0.753,-0.564 1.314,-1.346 1.608,-2.238c0.124,-0.407 0.315,-0.791 0.566,-1.135c0.269,-0.311 0.673,-0.475 1.084,-0.438c0.41,-0.006 0.806,0.155 1.096,0.444c0.302,0.289 0.469,0.692 0.458,1.109l0.001,-0.005Zm-31.42,-12.072c0.112,0.001 0.224,0.011 0.335,0.032l4.662,-0c1.05,-0.018 2.098,0.095 3.119,0.336c0.876,0.229 1.684,0.661 2.361,1.261c1.838,1.568 2.757,3.953 2.757,7.153c0.008,0.971 -0.084,1.941 -0.277,2.893c-0.167,0.823 -0.455,1.618 -0.855,2.358c-0.387,0.703 -0.888,1.338 -1.481,1.879c-0.463,0.417 -0.987,0.761 -1.554,1.021c-0.577,0.26 -1.186,0.442 -1.812,0.54c-0.724,0.11 -1.455,0.162 -2.187,0.156l-4.661,-0c-0.507,0.031 -1.014,-0.07 -1.469,-0.294c-0.317,-0.18 -0.549,-0.478 -0.644,-0.828c-0.112,-0.454 -0.163,-0.92 -0.151,-1.387l0,-12.904c-0.021,-0.113 -0.032,-0.229 -0.032,-0.344c-0,-1.027 0.848,-1.872 1.878,-1.872l0.011,0Zm-8.56,8.782c0.027,-1.147 -0.186,-2.288 -0.626,-3.349c-0.363,-0.879 -0.987,-1.626 -1.789,-2.142c-0.801,-0.491 -1.727,-0.743 -2.668,-0.726c-0.681,-0.006 -1.356,0.131 -1.981,0.403c-0.604,0.266 -1.14,0.666 -1.566,1.17c-0.473,0.578 -0.825,1.246 -1.036,1.962c-0.263,0.87 -0.391,1.775 -0.379,2.683c-0.012,0.918 0.116,1.833 0.379,2.713c0.214,0.738 0.579,1.425 1.072,2.015c0.434,0.512 0.977,0.92 1.59,1.195c1.458,0.615 3.125,0.508 4.492,-0.288c0.81,-0.506 1.448,-1.243 1.831,-2.116c0.485,-1.107 0.717,-2.309 0.68,-3.517l0.001,-0.003Zm10.279,-5.929l0,11.943l2.711,-0c0.593,-0 1.059,-0.016 1.397,-0.048c0.358,-0.037 0.71,-0.118 1.048,-0.24c0.345,-0.119 0.663,-0.302 0.939,-0.54c1.196,-1.008 1.794,-2.744 1.794,-5.209c0.086,-1.347 -0.186,-2.693 -0.789,-3.901c-0.417,-0.774 -1.112,-1.363 -1.945,-1.65c-0.909,-0.255 -1.85,-0.374 -2.794,-0.355l-2.361,-0Zm37.135,7.898l5.275,-0l-2.661,-7.262l-2.614,7.262Zm-70.744,-8.042l-2.399,-0l-0,5.377l2.408,-0c0.714,0.017 1.427,-0.072 2.114,-0.264c0.514,-0.141 0.969,-0.444 1.295,-0.864c0.316,-0.463 0.472,-1.015 0.446,-1.573c0.029,-0.697 -0.217,-1.379 -0.687,-1.897c-0.514,-0.52 -1.569,-0.78 -3.167,-0.78l-0.01,0.001Zm113.443,-6.585l-118.851,-0c-0.313,-0 -0.568,-0.544 -0.568,-1.215c0,-0.671 0.255,-1.215 0.568,-1.215l118.851,-0c0.314,-0 0.568,0.544 0.568,1.215c0,0.671 -0.254,1.215 -0.568,1.215Zm-38.531,-47.262l-2.392,0c-0.333,0 -0.607,0.273 -0.607,0.605l-0,0.559c-0,0.331 0.274,0.604 0.607,0.604l0.069,0l0,8.06c0,10.219 -8.437,18.628 -18.69,18.628c-10.252,-0.001 -18.688,-8.409 -18.688,-18.628l-0,-8.06c0.317,-0.002 0.577,-0.263 0.577,-0.58l-0,-0.583c-0,-0.332 -0.274,-0.605 -0.607,-0.605l-2.392,0c-0.333,0 -0.607,0.273 -0.607,0.605l0,0.559c0,0.331 0.274,0.604 0.607,0.604l0.031,0l-0,8.397c0.001,10.094 7.419,18.785 17.416,20.404c0.541,0.084 1.021,0.397 1.314,0.858l0.142,0.225c0.188,0.299 0.288,0.644 0.288,0.997l-0,3.161c0.001,0.731 -0.425,1.401 -1.089,1.712l-0.633,0.298c-0.692,0.325 -1.449,0.493 -2.214,0.493l-5.606,0c-1.407,0 -2.564,1.154 -2.564,2.556l-0,0.369l28.047,0l0,-0.369c0,-1.402 -1.158,-2.556 -2.564,-2.556l-5.6,0c-0.765,0 -1.522,-0.168 -2.214,-0.493l-0.633,-0.298c-0.665,-0.311 -1.09,-0.981 -1.089,-1.712l0,-3.196c0,-0.331 0.088,-0.656 0.255,-0.942l0.107,-0.186c0.279,-0.483 0.762,-0.816 1.314,-0.906c10.027,-1.591 17.481,-10.296 17.482,-20.415l-0,-8.402c0.299,-0.005 0.541,-0.252 0.541,-0.55l-0.002,-0.613c-0,-0.332 -0.274,-0.605 -0.607,-0.605l0.001,0.005Zm-10.234,-32.68c0,-1.062 0.877,-1.936 1.942,-1.936l3.959,0c-0.224,-8.998 -7.697,-16.285 -16.728,-16.31c-9.031,0.025 -16.504,7.312 -16.728,16.31l3.957,0c1.065,0 1.942,0.874 1.942,1.936c-0,1.062 -0.877,1.935 -1.942,1.935l-3.969,0l0,2.969l3.969,0c1.065,0 1.942,0.874 1.942,1.936c-0,1.061 -0.877,1.935 -1.942,1.935l-3.969,0l0,2.969l3.969,0c1.065,0 1.942,0.874 1.942,1.936c-0,1.061 -0.877,1.935 -1.942,1.935l-3.969,0l0,2.969l3.969,0c1.065,0 1.942,0.874 1.942,1.936c-0,1.061 -0.877,1.935 -1.942,1.935l-3.969,-0l0,2.969l3.969,0c1.065,0 1.942,0.874 1.942,1.935c-0,1.062 -0.877,1.936 -1.942,1.936l-3.969,-0l0,12.735c0.027,9.141 7.566,16.655 16.738,16.682c9.172,-0.027 16.711,-7.541 16.738,-16.682l-0,-12.735l-3.968,-0c-1.065,-0 -1.942,-0.874 -1.942,-1.936c0,-1.061 0.877,-1.935 1.942,-1.935l3.968,0l-0,-2.967l-3.968,-0c-1.065,-0 -1.942,-0.874 -1.942,-1.935c0,-1.062 0.877,-1.936 1.942,-1.936l3.968,0l-0,-2.971l-3.968,0c-1.065,0 -1.942,-0.874 -1.942,-1.935c0,-1.062 0.877,-1.936 1.942,-1.936l3.968,0l-0,-2.969l-3.968,0c-1.065,0 -1.942,-0.874 -1.942,-1.935c0,-1.062 0.877,-1.936 1.942,-1.936l3.968,0l-0,-2.968l-3.968,0c-1.065,0 -1.942,-0.873 -1.942,-1.935l0.001,-0.001Zm26.661,57.916c1.39,-0 2.534,-1.14 2.534,-2.526l-0,-51.762c-0,-1.386 -1.144,-2.526 -2.534,-2.526c-1.391,0 -2.535,1.14 -2.535,2.526l0,51.762c0,1.386 1.144,2.526 2.535,2.526Zm-74.932,-0c-1.391,-0 -2.535,-1.14 -2.535,-2.526l0,-51.762c0,-1.386 1.144,-2.526 2.535,-2.526c1.39,0 2.534,1.14 2.534,2.526l-0,51.762c-0,1.386 -1.144,2.526 -2.534,2.526Zm8.952,-5.737c-1.39,0 -2.534,-1.14 -2.534,-2.526l-0,-40.287c-0,-1.386 1.144,-2.526 2.534,-2.526c1.39,-0 2.534,1.14 2.534,2.526l0,40.286c0,1.386 -1.144,2.526 -2.534,2.526l-0,0.001Zm57.027,0c1.39,0 2.534,-1.14 2.534,-2.526l-0,-40.287c-0,-1.386 -1.144,-2.526 -2.534,-2.526c-1.391,-0 -2.535,1.14 -2.535,2.526l0,40.286c0,1.386 1.144,2.526 2.535,2.526l-0,0.001Zm17.849,-8.277c1.391,-0 2.535,-1.141 2.535,-2.526l-0,-23.733c-0,-1.385 -1.144,-2.526 -2.535,-2.526c-1.39,0 -2.534,1.141 -2.534,2.526l0,23.733c0,1.385 1.144,2.526 2.534,2.526Zm-92.725,-0c-1.39,-0 -2.534,-1.141 -2.534,-2.526l-0,-23.733c-0,-1.385 1.144,-2.526 2.534,-2.526c1.39,0 2.534,1.141 2.534,2.526l0,23.733c0,1.385 -1.144,2.526 -2.534,2.526Zm101.429,-10.057c1.39,-0 2.534,-1.14 2.534,-2.526l0,-3.619c0,-1.386 -1.144,-2.526 -2.534,-2.526c-1.39,0 -2.534,1.14 -2.534,2.526l-0,3.619c-0,1.386 1.144,2.526 2.534,2.526Zm-110.132,-0c-1.391,-0 -2.535,-1.14 -2.535,-2.526l0,-3.619c0,-1.386 1.144,-2.526 2.535,-2.526c1.39,0 2.534,1.14 2.534,2.526l-0,3.619c-0,1.386 -1.144,2.526 -2.534,2.526Z" style="fill:#e8f2fd;fill-rule:nonzero;"/></svg>