<?xml version="1.0" encoding="UTF-8" standalone="no"?><!DOCTYPE svg PUBLIC "-//W3C//DTD SVG 1.1//EN" "http://www.w3.org/Graphics/SVG/1.1/DTD/svg11.dtd"><svg width="100%" height="100%" viewBox="0 0 52 55" version="1.1" xmlns="http://www.w3.org/2000/svg" xmlns:xlink="http://www.w3.org/1999/xlink" xml:space="preserve" xmlns:serif="http://www.serif.com/" style="fill-rule:evenodd;clip-rule:evenodd;stroke-linejoin:round;stroke-miterlimit:2;"><path d="M8.671,21.079l3.314,-3.314c0.265,-0.239 0.61,-0.371 0.967,-0.371c0.793,-0 1.445,0.652 1.445,1.445c0,0.358 -0.133,0.704 -0.373,0.969l-5.78,5.78c-0.56,0.561 -1.483,0.561 -2.043,0l-5.78,-5.78c-0.255,-0.268 -0.397,-0.624 -0.397,-0.994c-0,-0.793 0.652,-1.446 1.445,-1.446c0.37,0 0.727,0.142 0.995,0.397l3.316,3.314l-0,-19.633c-0,-0.013 -0.001,-0.026 -0.001,-0.038c0,-0.793 0.653,-1.446 1.446,-1.446c0.793,0 1.445,0.653 1.445,1.446c0,0.012 0,0.025 -0,0.038l0.001,19.633Zm20.235,0.601l-0,7.363c-0,2.242 -1.845,4.088 -4.088,4.088c-0.956,-0 -1.883,-0.336 -2.618,-0.948l-2.673,-2.231c-0.816,-0.68 -1.844,-1.052 -2.905,-1.053c-0.768,0.001 -1.471,0.443 -1.803,1.135l-0.101,0.214c-0.39,0.81 -0.273,1.778 0.301,2.471l12.756,15.376c2.062,2.486 5.129,3.927 8.358,3.927c7.132,-0.003 12.999,-5.872 13.001,-13.003l-0,-11.561c0,-0.013 0,-0.026 0,-0.039c0,-0.792 -0.652,-1.445 -1.445,-1.445c-0.793,-0 -1.446,0.653 -1.446,1.445c0,0.013 0.001,0.026 0.001,0.039l-0,2.89c-0.021,0.778 -0.666,1.407 -1.445,1.407c-0.779,-0 -1.425,-0.629 -1.445,-1.407l-0,-5.78c-0.021,-0.779 -0.666,-1.408 -1.445,-1.408c-0.779,0 -1.425,0.629 -1.445,1.408l-0,5.78c-0.021,0.778 -0.666,1.407 -1.445,1.407c-0.779,-0 -1.425,-0.629 -1.445,-1.407l-0,-8.671c-0.021,-0.779 -0.666,-1.408 -1.445,-1.408c-0.779,0 -1.425,0.629 -1.445,1.408l-0,8.671c-0.021,0.778 -0.666,1.407 -1.445,1.407c-0.779,-0 -1.425,-0.629 -1.445,-1.407l-0,-20.23c0,-0.013 0,-0.026 0,-0.038c0,-0.793 -0.652,-1.446 -1.445,-1.446c-0.793,0 -1.446,0.653 -1.446,1.446c0,0.012 0.001,0.025 0.001,0.038l0.002,11.562Zm-2.89,-0l-0,-11.562c-0,-2.379 1.957,-4.336 4.335,-4.336c2.379,0 4.336,1.957 4.336,4.336l-0,7.471c0.462,-0.162 0.949,-0.245 1.439,-0.245c1.949,-0 3.67,1.312 4.186,3.192c0.507,-0.201 1.048,-0.304 1.594,-0.304c1.95,0 3.671,1.313 4.186,3.194c0.507,-0.201 1.048,-0.304 1.594,-0.304c2.379,-0 4.337,1.957 4.338,4.336l-0,11.561c-0.001,8.72 -7.176,15.895 -15.897,15.895c-4.089,0 -7.972,-1.824 -10.583,-4.971l-12.756,-15.376c-1.295,-1.56 -1.562,-3.742 -0.683,-5.569l0.1,-0.214c0.814,-1.691 2.531,-2.771 4.408,-2.772c1.738,0 3.423,0.61 4.758,1.723l2.67,2.225c0.215,0.177 0.484,0.273 0.763,0.273c0.656,0 1.198,-0.537 1.202,-1.194l0.01,-7.359Z" style="fill:#2b73c2;fill-rule:nonzero;"/></svg>